# File created by Blade
# Date/Time:  Mon Sep 22 19:00:17 2014
# Frame Rate: 120.000 fps
#------------------------------------------------------
:FULLY-SPECIFIED
:DEGREES
3249
root -0.611327 32.816780 -3.948213 42.693906 -0.075125 1.102562
Spine -48.541258 -22.949615 17.600762
Head -0.931757 -16.971420 -10.397352
LeftShoulder -20.770168 43.577455 1.088718
LeftArm 64.786975 32.787050 -56.906025
LeftForeArm 11.545474 -0.000000 10.562757
LeftHand -19.684672 -0.000000 -2.590791
LeftHandThumb1 -26.253704 0.000000 33.147579
RightShoulder -37.591209 -39.023545 -34.801504
RightArm -339.046870 17.002739 -351.778884
RightForeArm -27.628691 -0.000000 74.039163
RightHand 6.399408 -0.000000 21.232493
RightHandThumb1 -24.326973 -0.000000 -32.862282
LeftUpLeg -37.384851 7.405853 -3.609927
LeftLeg -0.537910 -0.000000 0.000000
LeftFoot -1.554240 -2.145468 -4.479044
LeftToeBase 2.448657 -0.000000 -0.000000
RightUpLeg -38.813637 -7.304107 2.628491
RightLeg 0.325099 -0.000000 -0.000000
RightFoot -7.919414 -7.349230 20.249456
RightToeBase 16.038516 -0.000000 -0.000000
3250
root -0.617529 32.816464 -3.946900 42.715913 0.001716 1.116462
Spine -48.541957 -23.041054 17.660882
Head -1.021775 -17.027284 -10.476086
LeftShoulder -20.909287 43.616986 0.976996
LeftArm 64.881618 32.752232 -56.781145
LeftForeArm 11.513703 -0.000000 10.506881
LeftHand -19.630966 -0.000000 -2.522326
LeftHandThumb1 -26.253704 0.000000 33.147579
RightShoulder -37.740546 -39.295599 -34.528353
RightArm -339.161404 16.396821 -351.571923
RightForeArm -27.793252 -0.000000 73.746758
RightHand 6.057924 -0.000000 21.945406
RightHandThumb1 -24.326973 -0.000000 -32.862282
LeftUpLeg -37.424194 7.352399 -3.566275
LeftLeg -0.508591 -0.000000 0.000000
LeftFoot -1.561216 -2.159496 -4.479848
LeftToeBase 2.448576 -0.000000 -0.000000
RightUpLeg -38.844500 -7.324017 2.654663
RightLeg 0.366684 -0.000000 -0.000000
RightFoot -7.962223 -7.400633 20.228515
RightToeBase 15.988842 -0.000000 -0.000000
3251
root -0.623527 32.816078 -3.945919 42.727603 0.019228 1.121629
Spine -48.539441 -23.107404 17.687649
Head -1.051126 -17.023422 -10.543352
LeftShoulder -20.991051 43.619763 0.916937
LeftArm 64.851410 32.721982 -56.769999
LeftForeArm 11.446826 -0.000000 10.493393
LeftHand -19.517650 -0.000000 -2.745419
LeftHandThumb1 -26.253704 0.000000 33.147579
RightShoulder -37.893915 -39.494346 -34.335624
RightArm -339.141219 15.650864 -351.398042
RightForeArm -28.305443 -0.000000 73.497018
RightHand 5.792667 -0.000000 22.490232
RightHandThumb1 -24.326973 -0.000000 -32.862282
LeftUpLeg -37.441252 7.355817 -3.559925
LeftLeg -0.501252 -0.000000 0.000000
LeftFoot -1.548195 -2.188522 -4.478858
LeftToeBase 2.417080 -0.000000 -0.000000
RightUpLeg -38.862013 -7.283354 2.636154
RightLeg 0.394565 -0.000000 -0.000000
RightFoot -8.000797 -7.462586 20.190481
RightToeBase 15.976827 -0.000000 -0.000000
3252
root -0.629701 32.815978 -3.945469 42.742995 0.052011 1.127832
Spine -48.547054 -23.190324 17.744116
Head -1.104660 -16.983158 -10.594815
LeftShoulder -21.088388 43.655810 0.817262
LeftArm 64.770002 32.612220 -56.889976
LeftForeArm 11.522652 -0.000000 10.458945
LeftHand -19.579629 0.000000 -2.735313
LeftHandThumb1 -26.253704 0.000000 33.147579
RightShoulder -38.049788 -39.717711 -34.094364
RightArm -339.129065 15.062251 -351.171671
RightForeArm -28.944741 0.000000 73.331265
RightHand 5.765489 -0.000000 22.804944
RightHandThumb1 -24.326973 -0.000000 -32.862282
LeftUpLeg -37.456570 7.305417 -3.510579
LeftLeg -0.498427 -0.000000 0.000000
LeftFoot -1.539811 -2.174547 -4.521265
LeftToeBase 2.416111 -0.000000 -0.000000
RightUpLeg -38.871234 -7.271347 2.635841
RightLeg 0.400761 -0.000000 -0.000000
RightFoot -8.059098 -7.481772 20.275663
RightToeBase 16.055031 -0.000000 -0.000000
3253
root -0.635627 32.814869 -3.945388 42.761348 0.067626 1.132252
Spine -48.550661 -23.261957 17.788600
Head -1.174057 -16.976487 -10.679057
LeftShoulder -21.172965 43.680224 0.733877
LeftArm 64.701653 32.530526 -56.996153
LeftForeArm 11.655036 -0.000000 10.393144
LeftHand -19.824323 -0.000000 -2.402244
LeftHandThumb1 -26.253704 0.000000 33.147579
RightShoulder -38.218469 -39.860147 -33.897704
RightArm -339.060068 14.450971 -350.963066
RightForeArm -29.078837 -0.000000 73.126074
RightHand 5.936465 -0.000000 22.841118
RightHandThumb1 -24.326973 -0.000000 -32.862282
LeftUpLeg -37.472994 7.271889 -3.476710
LeftLeg -0.497095 -0.000000 0.000000
LeftFoot -1.541396 -2.162329 -4.526393
LeftToeBase 2.417147 -0.000000 -0.000000
RightUpLeg -38.883635 -7.246239 2.627308
RightLeg 0.400871 -0.000000 -0.000000
RightFoot -8.070734 -7.521715 20.235527
RightToeBase 15.995746 -0.000000 -0.000000
3254
root -0.643093 32.813590 -3.945600 42.784352 0.082216 1.135324
Spine -48.563623 -23.350301 17.845094
Head -1.247524 -16.839064 -10.693432
LeftShoulder -21.278346 43.684181 0.659917
LeftArm 64.666441 32.496733 -57.067875
LeftForeArm 11.638973 -0.000000 10.273081
LeftHand -19.663367 -0.000000 -2.562468
LeftHandThumb1 -26.253704 0.000000 33.147579
RightShoulder -38.441932 -39.905664 -33.682088
RightArm -338.912934 13.795340 -350.885632
RightForeArm -29.052654 -0.000000 72.876701
RightHand 6.555527 -0.000000 22.040251
RightHandThumb1 -24.326973 -0.000000 -32.862282
LeftUpLeg -37.494267 7.231825 -3.429445
LeftLeg -0.495936 -0.000000 0.000000
LeftFoot -1.545607 -2.140541 -4.543273
LeftToeBase 2.415504 -0.000000 -0.000000
RightUpLeg -38.889091 -7.226066 2.625780
RightLeg 0.377361 -0.000000 -0.000000
RightFoot -8.105184 -7.535440 20.249273
RightToeBase 16.057000 -0.000000 -0.000000
3255
root -0.648742 32.812427 -3.946826 42.806246 0.064972 1.136028
Spine -48.567265 -23.420826 17.876498
Head -1.312207 -16.714647 -10.715494
LeftShoulder -21.357038 43.713831 0.596285
LeftArm 64.607943 32.436256 -57.162856
LeftForeArm 11.657617 -0.000000 10.222975
LeftHand -19.660852 -0.000000 -2.603834
LeftHandThumb1 -26.253704 0.000000 33.147579
RightShoulder -38.595607 -39.984380 -33.455938
RightArm -338.842757 13.271122 -350.774407
RightForeArm -28.842040 -0.000000 72.709065
RightHand 7.049839 -0.000000 21.332044
RightHandThumb1 -24.326973 -0.000000 -32.862282
LeftUpLeg -37.508791 7.195355 -3.389564
LeftLeg -0.499597 -0.000000 0.000000
LeftFoot -1.560979 -2.106201 -4.598297
LeftToeBase 2.429835 -0.000000 -0.000000
RightUpLeg -38.899812 -7.220135 2.634027
RightLeg 0.348794 -0.000000 -0.000000
RightFoot -8.099207 -7.514582 20.266696
RightToeBase 16.043816 -0.000000 -0.000000
3256
root -0.654288 32.811367 -3.949348 42.849641 0.037083 1.133664
Spine -48.609756 -23.491259 17.937236
Head -1.365321 -16.578034 -10.738089
LeftShoulder -21.424324 43.713563 0.533251
LeftArm 64.534726 32.397713 -57.287003
LeftForeArm 11.758685 0.000000 10.083472
LeftHand -19.826338 -0.000000 -2.318991
LeftHandThumb1 -26.253704 0.000000 33.147579
RightShoulder -38.720290 -40.092187 -33.230000
RightArm -338.747938 12.900092 -350.608586
RightForeArm -28.778443 -0.000000 72.654536
RightHand 7.505043 -0.000000 20.805285
RightHandThumb1 -24.326973 -0.000000 -32.862282
LeftUpLeg -37.542555 7.161635 -3.355602
LeftLeg -0.509263 -0.000000 0.000000
LeftFoot -1.564317 -2.047484 -4.605150
LeftToeBase 2.429428 -0.000000 -0.000000
RightUpLeg -38.924394 -7.190501 2.627212
RightLeg 0.301375 -0.000000 -0.000000
RightFoot -8.097414 -7.502470 20.286545
RightToeBase 16.110245 -0.000000 -0.000000
3257
root -0.660053 32.810872 -3.953766 42.919674 -0.018813 1.123413
Spine -48.674514 -23.527405 17.979565
Head -1.395325 -16.469655 -10.730093
LeftShoulder -21.398003 43.705622 0.540386
LeftArm 64.411473 32.395632 -57.409823
LeftForeArm 11.603405 -0.000000 10.022308
LeftHand -19.968369 -0.000000 -2.120256
LeftHandThumb1 -26.253704 0.000000 33.147579
RightShoulder -38.777937 -40.155321 -33.073630
RightArm -338.665025 12.580087 -350.406484
RightForeArm -28.856214 -0.000000 72.765947
RightHand 7.670829 -0.000000 20.903396
RightHandThumb1 -24.326973 -0.000000 -32.862282
LeftUpLeg -37.613395 7.164781 -3.346502
LeftLeg -0.506701 -0.000000 0.000000
LeftFoot -1.578659 -2.003933 -4.617934
LeftToeBase 2.433137 -0.000000 -0.000000
RightUpLeg -38.987817 -7.140870 2.619237
RightLeg 0.261979 -0.000000 -0.000000
RightFoot -8.066540 -7.498687 20.313787
RightToeBase 16.106941 -0.000000 -0.000000
3258
root -0.666336 32.810258 -3.958361 42.949175 -0.105832 1.108497
Spine -48.706677 -23.583326 18.015748
Head -1.405712 -16.292866 -10.726698
LeftShoulder -21.417170 43.729751 0.498237
LeftArm 64.316646 32.347518 -57.517002
LeftForeArm 11.641786 -0.000000 9.930414
LeftHand -19.940965 -0.000000 -2.145910
LeftHandThumb1 -26.253704 0.000000 33.147579
RightShoulder -38.824502 -40.235302 -32.872687
RightArm -338.533320 12.429106 -350.227438
RightForeArm -29.135226 -0.000000 73.030475
RightHand 7.804511 -0.000000 20.978442
RightHandThumb1 -24.326973 -0.000000 -32.862282
LeftUpLeg -37.635200 7.170568 -3.328588
LeftLeg -0.510753 -0.000000 0.000000
LeftFoot -1.589493 -1.938941 -4.636025
LeftToeBase 2.413556 -0.000000 -0.000000
RightUpLeg -38.984801 -7.037088 2.564298
RightLeg 0.174683 -0.000000 -0.000000
RightFoot -8.048578 -7.523149 20.336178
RightToeBase 16.164141 -0.000000 -0.000000
3259
root -0.671970 32.809717 -3.964976 42.998463 -0.233844 1.086302
Spine -48.747770 -23.603545 18.041496
Head -1.449433 -16.073199 -10.707518
LeftShoulder -21.421297 43.741564 0.478367
LeftArm 64.185156 32.312642 -57.597809
LeftForeArm 11.706444 -0.000000 9.941069
LeftHand -19.940215 -0.000000 -2.284562
LeftHandThumb1 -26.253704 0.000000 33.147579
RightShoulder -38.869629 -40.283110 -32.708007
RightArm -338.358627 12.294052 -350.060923
RightForeArm -29.424843 -0.000000 73.414701
RightHand 7.601764 -0.000000 21.240653
RightHandThumb1 -24.326973 -0.000000 -32.862282
LeftUpLeg -37.674516 7.209189 -3.340949
LeftLeg -0.520783 -0.000000 0.000000
LeftFoot -1.610507 -1.859868 -4.655527
LeftToeBase 2.470507 -0.000000 -0.000000
RightUpLeg -39.023176 -6.922900 2.508536
RightLeg 0.110250 -0.000000 -0.000000
RightFoot -8.000706 -7.527317 20.383367
RightToeBase 16.162393 -0.000000 -0.000000
3260
root -0.677066 32.809045 -3.970814 43.037268 -0.351054 1.077467
Spine -48.794830 -23.646334 18.068725
Head -1.478877 -15.833614 -10.674105
LeftShoulder -21.403237 43.766027 0.490683
LeftArm 64.174579 32.349873 -57.559138
LeftForeArm 11.621287 -0.000000 9.865030
LeftHand -19.887616 -0.000000 -2.319494
LeftHandThumb1 -26.253704 0.000000 33.147579
RightShoulder -38.894201 -40.319276 -32.562914
RightArm -338.157272 12.203136 -349.915392
RightForeArm -29.631881 -0.000000 73.891266
RightHand 7.299830 -0.000000 21.351248
RightHandThumb1 -24.326973 -0.000000 -32.862282
LeftUpLeg -37.710388 7.245658 -3.367997
LeftLeg -0.517742 -0.000000 0.000000
LeftFoot -1.629366 -1.786374 -4.660639
LeftToeBase 2.461557 -0.000000 -0.000000
RightUpLeg -39.063480 -6.881697 2.496444
RightLeg 0.062251 -0.000000 -0.000000
RightFoot -7.952419 -7.468160 20.385338
RightToeBase 16.165647 -0.000000 -0.000000
